<?xml version="1.0" encoding="iso-8859-1"?>
<!-- Generator: Adobe Illustrator 16.0.3, SVG Export Plug-In . SVG Version: 6.00 Build 0)  -->
<!DOCTYPE svg PUBLIC "-//W3C//DTD SVG 1.1//EN" "http://www.w3.org/Graphics/SVG/1.1/DTD/svg11.dtd">
<svg version="1.1" id="Capa_1" xmlns="http://www.w3.org/2000/svg" xmlns:xlink="http://www.w3.org/1999/xlink" x="0px" y="0px"
	 width="111.313px" height="57.177px" viewBox="0 0 111.313 57.177" style="enable-background:new 0 0 111.313 57.177;"
	 xml:space="preserve">
<style type="text/css">
<![CDATA[
	.st0{fill-rule:evenodd;clip-rule:evenodd;fill:#708998;}
	.st1{fill-rule:evenodd;clip-rule:evenodd;fill:#11365B;}
	.st2{fill-rule:evenodd;clip-rule:evenodd;fill:#11375E;}
	.st3{fill-rule:evenodd;clip-rule:evenodd;fill:#113860;}
	.st4{fill-rule:evenodd;clip-rule:evenodd;fill:#12365A;}
	.st5{fill-rule:evenodd;clip-rule:evenodd;fill:#12365B;}
	.st6{fill-rule:evenodd;clip-rule:evenodd;fill:#12375B;}
	.st7{fill-rule:evenodd;clip-rule:evenodd;fill:#12375D;}
	.st8{fill-rule:evenodd;clip-rule:evenodd;fill:#12385C;}
	.st9{fill-rule:evenodd;clip-rule:evenodd;fill:#12385F;}
	.st10{fill-rule:evenodd;clip-rule:evenodd;fill:#13395E;}
	.st11{fill-rule:evenodd;clip-rule:evenodd;fill:#133A5E;}
	.st12{fill-rule:evenodd;clip-rule:evenodd;fill:#133A5F;}
	.st13{fill-rule:evenodd;clip-rule:evenodd;fill:#133B5C;}
	.st14{fill-rule:evenodd;clip-rule:evenodd;fill:#133B5F;}
	.st15{fill-rule:evenodd;clip-rule:evenodd;fill:#133B60;}
	.st16{fill-rule:evenodd;clip-rule:evenodd;fill:#133C64;}
	.st17{fill-rule:evenodd;clip-rule:evenodd;fill:#143C61;}
	.st18{fill-rule:evenodd;clip-rule:evenodd;fill:#143C62;}
	.st19{fill-rule:evenodd;clip-rule:evenodd;fill:#143D5F;}
	.st20{fill-rule:evenodd;clip-rule:evenodd;fill:#144163;}
	.st21{fill-rule:evenodd;clip-rule:evenodd;fill:#153C60;}
	.st22{fill-rule:evenodd;clip-rule:evenodd;fill:#153E61;}
	.st23{fill-rule:evenodd;clip-rule:evenodd;fill:#153F67;}
	.st24{fill-rule:evenodd;clip-rule:evenodd;fill:#154163;}
	.st25{fill-rule:evenodd;clip-rule:evenodd;fill:#154167;}
	.st26{fill-rule:evenodd;clip-rule:evenodd;fill:#184063;}
	.st27{fill-rule:evenodd;clip-rule:evenodd;fill:#184266;}
]]>
</style>
<g>
	<path class="st20" d="M35.22,0.994c1.333,3.131,2.664,6.262,4.233,9.951c1.236-2.647,2.229-4.773,3.417-7.317
		c2.398,3.047,4.982,5.418,4.66,9.339c-0.176,2.124,0.506,3.079,2.89,2.426c2.569-0.705,5.124-1.081,7.326,1.339
		c1.36,1.495,3.116,0.252,4.651-0.197c8.406-2.462,9.396-2.386,13.336,5.181c2.361,4.537,6.061,3.309,9.422,3.346
		c3.508,0.039,5.693,0.386,5.217,4.809c-0.425,3.941,3.627,3.001,5.664,4.248c1.982,1.213,3.758,1.016,5.059-1.133
		c2.604-4.303,6.119-3.95,9.953-1.923c-0.74,6.892-0.104,13.806-0.35,20.705c-0.063,1.776,0.482,3.624-0.48,5.323
		c-15.709-2.692-31.426-5.333-47.123-8.086C42.328,45.361,21.577,41.629,0,37.791c1.396-2.762,2.415-5.298,3.87-7.552
		c3.662-5.672,5.293-11.831,4.234-18.45c-0.916-5.711,1.288-8.681,6.82-9.604c1.457-0.243,2.869-0.755,4.303-1.144
		C24.559,1.011,29.89,1.025,35.22,0.994z"/>
	<path class="st10" d="M35.22,0.994c-5.325,1.675-10.656,1.609-15.992,0.046C24.555-0.345,29.886-0.333,35.22,0.994z"/>
	<path class="st13" d="M110.218,57.09c0.006-7.1-0.018-14.198,0.039-21.297c0.014-1.596-0.512-3.332,0.791-4.731
		c0.096,8.341,0.197,16.681,0.266,25.022C111.317,56.683,111.2,57.434,110.218,57.09z"/>
	<path class="st11" d="M79.31,26.306c2.943,0,5.886,0,8.829,0c0.003,0.145,0.005,0.289,0.008,0.434c-2.943,0-5.886,0-8.829,0
		C79.314,26.595,79.312,26.451,79.31,26.306z"/>
</g>
</svg>
