<?xml version="1.0" encoding="iso-8859-1"?>
<!-- Generator: Adobe Illustrator 16.0.3, SVG Export Plug-In . SVG Version: 6.00 Build 0)  -->
<!DOCTYPE svg PUBLIC "-//W3C//DTD SVG 1.1//EN" "http://www.w3.org/Graphics/SVG/1.1/DTD/svg11.dtd">
<svg version="1.1" id="Capa_1" xmlns="http://www.w3.org/2000/svg" xmlns:xlink="http://www.w3.org/1999/xlink" x="0px" y="0px"
	 width="139.579px" height="146.938px" viewBox="0 0 139.579 146.938" style="enable-background:new 0 0 139.579 146.938;"
	 xml:space="preserve">
<style type="text/css">
<![CDATA[
	.st0{fill-rule:evenodd;clip-rule:evenodd;fill:#708998;}
	.st1{fill-rule:evenodd;clip-rule:evenodd;fill:#11365B;}
	.st2{fill-rule:evenodd;clip-rule:evenodd;fill:#11375E;}
	.st3{fill-rule:evenodd;clip-rule:evenodd;fill:#113860;}
	.st4{fill-rule:evenodd;clip-rule:evenodd;fill:#12365A;}
	.st5{fill-rule:evenodd;clip-rule:evenodd;fill:#12365B;}
	.st6{fill-rule:evenodd;clip-rule:evenodd;fill:#12375B;}
	.st7{fill-rule:evenodd;clip-rule:evenodd;fill:#12375D;}
	.st8{fill-rule:evenodd;clip-rule:evenodd;fill:#12385C;}
	.st9{fill-rule:evenodd;clip-rule:evenodd;fill:#12385F;}
	.st10{fill-rule:evenodd;clip-rule:evenodd;fill:#13395E;}
	.st11{fill-rule:evenodd;clip-rule:evenodd;fill:#133A5E;}
	.st12{fill-rule:evenodd;clip-rule:evenodd;fill:#133A5F;}
	.st13{fill-rule:evenodd;clip-rule:evenodd;fill:#133B5C;}
	.st14{fill-rule:evenodd;clip-rule:evenodd;fill:#133B5F;}
	.st15{fill-rule:evenodd;clip-rule:evenodd;fill:#133B60;}
	.st16{fill-rule:evenodd;clip-rule:evenodd;fill:#133C64;}
	.st17{fill-rule:evenodd;clip-rule:evenodd;fill:#143C61;}
	.st18{fill-rule:evenodd;clip-rule:evenodd;fill:#143C62;}
	.st19{fill-rule:evenodd;clip-rule:evenodd;fill:#143D5F;}
	.st20{fill-rule:evenodd;clip-rule:evenodd;fill:#144163;}
	.st21{fill-rule:evenodd;clip-rule:evenodd;fill:#153C60;}
	.st22{fill-rule:evenodd;clip-rule:evenodd;fill:#153E61;}
	.st23{fill-rule:evenodd;clip-rule:evenodd;fill:#153F67;}
	.st24{fill-rule:evenodd;clip-rule:evenodd;fill:#154163;}
	.st25{fill-rule:evenodd;clip-rule:evenodd;fill:#154167;}
	.st26{fill-rule:evenodd;clip-rule:evenodd;fill:#184063;}
	.st27{fill-rule:evenodd;clip-rule:evenodd;fill:#184266;}
]]>
</style>
<g>
	<path class="st20" d="M98.206,113.117c-0.769,5.218-5.35,5.882-8.887,5.915c-4.75,0.043-5.547,1.829-5.237,5.869
		c0.278,3.63,1.155,7.939-0.383,10.786c-1.678,3.103-6.521,1.958-9.998,2.562c-1.978,0.343-3.116,1.176-2.683,3.259
		c1.077,5.186-1.894,5.807-5.87,5.276c-1.398-0.188-3.003,0.697-4.175-0.751c2.318-1.013,4.691-0.44,7.042-0.518
		c-2.337,0.32-4.723-0.683-7.026,0.53c-2.079-1.748-3.081-4.255-4.471-6.471c-4.894-7.8-10.535-8.335-16.692-1.514
		c-0.75,0.832-1.269,2.019-2.654,2.05c-1.951-1.363-4.145-0.103-5.165-0.496c1.05,0.096,3.195-0.638,5.171,0.49
		c-1.838,1.133-3.91,0.403-5.847,0.735c-2.728,0.466-3.726-0.81-3.274-3.336c0.606-3.387-0.946-4.998-4.155-5.152
		c-4.56-0.22-7.087-2.855-8.899-6.749c-0.774-1.666-1.311-3.802-4.001-3.868c-1.8-0.045-1.095-1.698-1.057-2.741
		c0.062-1.662-0.028-3.404,0.443-4.963c1.179-3.891,0.019-5.897-4.101-6.455c-2.906-0.394-5.921-1.113-3.566-5.3
		c0.534-0.949,0.295-2.023-0.61-2.689c-3.845-2.83-1.672-5.03,0.49-7.606c11.99-14.287,23.979-28.577,35.695-43.088
		c2.464-3.053,3.888-2.796,6.636-0.607c8.008,6.379,8.089,6.247,16.53,0.725c23.682-15.489,47.356-30.991,71.098-46.388
		c1.578-1.023,2.977-3.789,5.372-2.073c2.023,1.449,2.181,8.698,0.48,10.479c-3.679,3.854-7.332,7.745-11.211,11.392
		c-2.571,2.416-3.373,4.284-0.515,7.229c3.114,3.21,5.449,7.163,8.472,10.475c2.269,2.485,1.542,3.58-0.91,5.242
		c-11.024,7.471-21.804,15.307-32.908,22.653c-5.673,3.755-7.821,9.806-10.967,15.155c-1.556,2.646,1.416,5.236,2.606,7.67
		c1.613,3.296,2.658,5.948,0.085,9.551c-2.206,3.089-0.145,7.092-0.322,10.706c1.946,0.665,2.778-1.088,4.125-1.393
		C99.378,110.033,98.432,111.717,98.206,113.117z"/>
	<path class="st0" d="M98.206,113.117c-0.538-1.101,0.165-2.688-1.339-3.408c0.395-0.583,1.104-0.983,1.534-0.45
		C99.404,110.51,98.993,111.862,98.206,113.117z"/>
	<path class="st7" d="M60.988,146.046c2.481-2.095,5.256-0.587,7.933-0.013c-2.649,0-5.298,0-7.948,0L60.988,146.046z"/>
	<path class="st9" d="M37.177,140.105c-2.306,0-4.611,0-6.917,0c2.337-0.787,4.72-2.006,6.911,0.006
		C37.171,140.111,37.177,140.105,37.177,140.105z"/>
</g>
</svg>
