<?xml version="1.0" encoding="iso-8859-1"?>
<!-- Generator: Adobe Illustrator 16.0.3, SVG Export Plug-In . SVG Version: 6.00 Build 0)  -->
<!DOCTYPE svg PUBLIC "-//W3C//DTD SVG 1.1//EN" "http://www.w3.org/Graphics/SVG/1.1/DTD/svg11.dtd">
<svg version="1.1" id="Capa_1" xmlns="http://www.w3.org/2000/svg" xmlns:xlink="http://www.w3.org/1999/xlink" x="0px" y="0px"
	 width="82.115px" height="99.202px" viewBox="0 0 82.115 99.202" style="enable-background:new 0 0 82.115 99.202;"
	 xml:space="preserve">
<style type="text/css">
<![CDATA[
	.st0{fill-rule:evenodd;clip-rule:evenodd;fill:#708998;}
	.st1{fill-rule:evenodd;clip-rule:evenodd;fill:#11365B;}
	.st2{fill-rule:evenodd;clip-rule:evenodd;fill:#11375E;}
	.st3{fill-rule:evenodd;clip-rule:evenodd;fill:#113860;}
	.st4{fill-rule:evenodd;clip-rule:evenodd;fill:#12365A;}
	.st5{fill-rule:evenodd;clip-rule:evenodd;fill:#12365B;}
	.st6{fill-rule:evenodd;clip-rule:evenodd;fill:#12375B;}
	.st7{fill-rule:evenodd;clip-rule:evenodd;fill:#12375D;}
	.st8{fill-rule:evenodd;clip-rule:evenodd;fill:#12385C;}
	.st9{fill-rule:evenodd;clip-rule:evenodd;fill:#12385F;}
	.st10{fill-rule:evenodd;clip-rule:evenodd;fill:#13395E;}
	.st11{fill-rule:evenodd;clip-rule:evenodd;fill:#133A5E;}
	.st12{fill-rule:evenodd;clip-rule:evenodd;fill:#133A5F;}
	.st13{fill-rule:evenodd;clip-rule:evenodd;fill:#133B5C;}
	.st14{fill-rule:evenodd;clip-rule:evenodd;fill:#133B5F;}
	.st15{fill-rule:evenodd;clip-rule:evenodd;fill:#133B60;}
	.st16{fill-rule:evenodd;clip-rule:evenodd;fill:#133C64;}
	.st17{fill-rule:evenodd;clip-rule:evenodd;fill:#143C61;}
	.st18{fill-rule:evenodd;clip-rule:evenodd;fill:#143C62;}
	.st19{fill-rule:evenodd;clip-rule:evenodd;fill:#143D5F;}
	.st20{fill-rule:evenodd;clip-rule:evenodd;fill:#144163;}
	.st21{fill-rule:evenodd;clip-rule:evenodd;fill:#153C60;}
	.st22{fill-rule:evenodd;clip-rule:evenodd;fill:#153E61;}
	.st23{fill-rule:evenodd;clip-rule:evenodd;fill:#153F67;}
	.st24{fill-rule:evenodd;clip-rule:evenodd;fill:#154163;}
	.st25{fill-rule:evenodd;clip-rule:evenodd;fill:#154167;}
	.st26{fill-rule:evenodd;clip-rule:evenodd;fill:#184063;}
	.st27{fill-rule:evenodd;clip-rule:evenodd;fill:#184266;}
]]>
</style>
<g>
	<path class="st20" d="M77.638,1.38c0.219-0.726,0.558-2.074,1.345-0.948c0.634,0.905,0.26,2.545,0.261,3.858
		c0.013,14.327,0.014,28.655,0.011,42.982c0,1.999-0.279,4.109,0.718,5.895c3.297,5.896,2.294,11.678,0.306,17.729
		c-2.698,8.215-5.013,16.563-7.249,24.918c-0.694,2.595-1.877,3.392-4.485,3.371c-13.827-0.109-27.656-0.116-41.482,0.017
		c-2.693,0.026-3.813-0.92-4.433-3.452c-1.696-6.944-3.626-13.831-5.575-21.162c-4.158,2.227-6.806,5.937-10.346,8.487
		c-1.11,0.8-2.373,4.177-3.978,1.145c-1.142-2.158-4.804-4.604-1.138-7.728c3.169-2.7,6.207-5.565,9.478-8.136
		c2.02-1.586,2.444-3.036,1.352-5.439c-1.701-3.737-5.561-8.294-4.069-11.221c1.662-3.258,7.602-3.058,11.679-4.346
		c2.629-0.83,5.145-2.014,8.192-1.037c4.299,1.376,8.517,0.781,6.699,8.571c-1.475,6.313-0.835,14.327,4.741,20.109
		c1.128,1.17,1.936,1.854,3.775,1.299c9.206-2.776,11.294-6.62,7.672-15.597c-1.001-2.479,0.566-2.942,1.816-3.811
		c6.292-4.37,12.587-8.735,18.97-12.969c1.894-1.258,2.698-2.418,2.081-4.862c-1.452-5.749-0.946-11.985-4.581-17.193
		c-1.522-2.183,0.394-4.096,0.958-6.072c1.286-4.514,3.466-8.603,6.24-12.379c1.507,0.698,1.461,2.063,1.461,3.407
		c-0.001,14.146,0.009,28.291,0.011,42.437c0.001,0.51-0.352,0.639,0.064,0.161C77.791,33.91,78.641,17.647,77.638,1.38z"/>
	<path class="st6" d="M77.638,1.38c0.26,0.413,0.747,0.826,0.748,1.239c0.038,16.228,0.032,32.455-0.813,48.687
		c0-11.709,0.106-23.42-0.056-35.127c-0.06-4.255,1.005-8.636-0.923-12.77C76.941,2.732,77.29,2.056,77.638,1.38z"/>
</g>
</svg>
