<?xml version="1.0" encoding="iso-8859-1"?>
<!-- Generator: Adobe Illustrator 16.0.3, SVG Export Plug-In . SVG Version: 6.00 Build 0)  -->
<!DOCTYPE svg PUBLIC "-//W3C//DTD SVG 1.1//EN" "http://www.w3.org/Graphics/SVG/1.1/DTD/svg11.dtd">
<svg version="1.1" id="Capa_1" xmlns="http://www.w3.org/2000/svg" xmlns:xlink="http://www.w3.org/1999/xlink" x="0px" y="0px"
	 width="90.374px" height="92.591px" viewBox="0 0 90.374 92.591" style="enable-background:new 0 0 90.374 92.591;"
	 xml:space="preserve">
<style type="text/css">
<![CDATA[
	.st0{fill-rule:evenodd;clip-rule:evenodd;fill:#708998;}
	.st1{fill-rule:evenodd;clip-rule:evenodd;fill:#11365B;}
	.st2{fill-rule:evenodd;clip-rule:evenodd;fill:#11375E;}
	.st3{fill-rule:evenodd;clip-rule:evenodd;fill:#113860;}
	.st4{fill-rule:evenodd;clip-rule:evenodd;fill:#12365A;}
	.st5{fill-rule:evenodd;clip-rule:evenodd;fill:#12365B;}
	.st6{fill-rule:evenodd;clip-rule:evenodd;fill:#12375B;}
	.st7{fill-rule:evenodd;clip-rule:evenodd;fill:#12375D;}
	.st8{fill-rule:evenodd;clip-rule:evenodd;fill:#12385C;}
	.st9{fill-rule:evenodd;clip-rule:evenodd;fill:#12385F;}
	.st10{fill-rule:evenodd;clip-rule:evenodd;fill:#13395E;}
	.st11{fill-rule:evenodd;clip-rule:evenodd;fill:#133A5E;}
	.st12{fill-rule:evenodd;clip-rule:evenodd;fill:#133A5F;}
	.st13{fill-rule:evenodd;clip-rule:evenodd;fill:#133B5C;}
	.st14{fill-rule:evenodd;clip-rule:evenodd;fill:#133B5F;}
	.st15{fill-rule:evenodd;clip-rule:evenodd;fill:#133B60;}
	.st16{fill-rule:evenodd;clip-rule:evenodd;fill:#133C64;}
	.st17{fill-rule:evenodd;clip-rule:evenodd;fill:#143C61;}
	.st18{fill-rule:evenodd;clip-rule:evenodd;fill:#143C62;}
	.st19{fill-rule:evenodd;clip-rule:evenodd;fill:#143D5F;}
	.st20{fill-rule:evenodd;clip-rule:evenodd;fill:#144163;}
	.st21{fill-rule:evenodd;clip-rule:evenodd;fill:#153C60;}
	.st22{fill-rule:evenodd;clip-rule:evenodd;fill:#153E61;}
	.st23{fill-rule:evenodd;clip-rule:evenodd;fill:#153F67;}
	.st24{fill-rule:evenodd;clip-rule:evenodd;fill:#154163;}
	.st25{fill-rule:evenodd;clip-rule:evenodd;fill:#154167;}
	.st26{fill-rule:evenodd;clip-rule:evenodd;fill:#184063;}
	.st27{fill-rule:evenodd;clip-rule:evenodd;fill:#184266;}
]]>
</style>
<g>
	<path class="st20" d="M86.262,90.767c-6.499-4.033-13.031-8.014-19.482-12.123c-3.151-2.006-3.064-5.768-4.146-8.811
		c-0.836-2.355-1.774-2.953-3.874-1.68c-0.284,0.172-0.62,0.264-0.888,0.455c-10.848,7.762-20.937,5.82-32.566,0.18
		C14.793,63.69,7.876,55.925,0.894,47.505c-1.5-1.809-0.968-2.693,0.529-3.971c3.93-3.354,7.64-6.971,11.648-10.225
		c2.271-1.844,2.736-3.529,1.749-6.351c-3.797-10.851-3.688-10.886,5.957-16.813c4.967-3.055,9.94-6.098,14.877-9.199
		c1.51-0.949,2.717-1.529,4.388-0.024c16.33,14.712,32.728,29.349,49.105,44.007c0.188,13.654,0.038,27.309,0.078,40.965
		C89.231,88.128,89.255,90.36,86.262,90.767z"/>
	<path class="st17" d="M86.262,90.767c2.273-1.355,1.981-3.58,1.979-5.736c-0.015-11.631-0.035-23.262,0.023-34.893
		c0.009-1.752-0.651-3.689,0.883-5.209c1.683,1.012,0.998,2.678,1.004,4.061c0.051,13.463,0.05,26.926-0.003,40.387
		c-0.005,1.047,0.792,2.598-0.579,3.104C88.191,92.985,87.213,91.663,86.262,90.767z"/>
</g>
</svg>
