<?xml version="1.0" encoding="iso-8859-1"?>
<!-- Generator: Adobe Illustrator 16.0.3, SVG Export Plug-In . SVG Version: 6.00 Build 0)  -->
<!DOCTYPE svg PUBLIC "-//W3C//DTD SVG 1.1//EN" "http://www.w3.org/Graphics/SVG/1.1/DTD/svg11.dtd">
<svg version="1.1" id="Capa_1" xmlns="http://www.w3.org/2000/svg" xmlns:xlink="http://www.w3.org/1999/xlink" x="0px" y="0px"
	 width="78.744px" height="58.979px" viewBox="0 0 78.744 58.979" style="enable-background:new 0 0 78.744 58.979;"
	 xml:space="preserve">
<style type="text/css">
<![CDATA[
	.st0{fill-rule:evenodd;clip-rule:evenodd;fill:#708998;}
	.st1{fill-rule:evenodd;clip-rule:evenodd;fill:#11365B;}
	.st2{fill-rule:evenodd;clip-rule:evenodd;fill:#11375E;}
	.st3{fill-rule:evenodd;clip-rule:evenodd;fill:#113860;}
	.st4{fill-rule:evenodd;clip-rule:evenodd;fill:#12365A;}
	.st5{fill-rule:evenodd;clip-rule:evenodd;fill:#12365B;}
	.st6{fill-rule:evenodd;clip-rule:evenodd;fill:#12375B;}
	.st7{fill-rule:evenodd;clip-rule:evenodd;fill:#12375D;}
	.st8{fill-rule:evenodd;clip-rule:evenodd;fill:#12385C;}
	.st9{fill-rule:evenodd;clip-rule:evenodd;fill:#12385F;}
	.st10{fill-rule:evenodd;clip-rule:evenodd;fill:#13395E;}
	.st11{fill-rule:evenodd;clip-rule:evenodd;fill:#133A5E;}
	.st12{fill-rule:evenodd;clip-rule:evenodd;fill:#133A5F;}
	.st13{fill-rule:evenodd;clip-rule:evenodd;fill:#133B5C;}
	.st14{fill-rule:evenodd;clip-rule:evenodd;fill:#133B5F;}
	.st15{fill-rule:evenodd;clip-rule:evenodd;fill:#133B60;}
	.st16{fill-rule:evenodd;clip-rule:evenodd;fill:#133C64;}
	.st17{fill-rule:evenodd;clip-rule:evenodd;fill:#143C61;}
	.st18{fill-rule:evenodd;clip-rule:evenodd;fill:#143C62;}
	.st19{fill-rule:evenodd;clip-rule:evenodd;fill:#143D5F;}
	.st20{fill-rule:evenodd;clip-rule:evenodd;fill:#144163;}
	.st21{fill-rule:evenodd;clip-rule:evenodd;fill:#153C60;}
	.st22{fill-rule:evenodd;clip-rule:evenodd;fill:#153E61;}
	.st23{fill-rule:evenodd;clip-rule:evenodd;fill:#153F67;}
	.st24{fill-rule:evenodd;clip-rule:evenodd;fill:#154163;}
	.st25{fill-rule:evenodd;clip-rule:evenodd;fill:#154167;}
	.st26{fill-rule:evenodd;clip-rule:evenodd;fill:#184063;}
	.st27{fill-rule:evenodd;clip-rule:evenodd;fill:#184266;}
]]>
</style>
<path class="st20" d="M78.393,38.554c0.784,3.406-0.747,3.898-3.484,3.592c-5.451-0.608-10.939-0.869-16.395-1.449
	c-2.129-0.227-3.836,0.16-5.531,1.51c-3.641,2.901-7.553,5.473-11.081,8.497c-2.389,2.047-4.496,2.516-7.021,0.572
	c-2.665-2.051-5.229-1.897-8.251-0.359c-5.178,2.635-10.693,4.603-15.88,7.222c-3.141,1.587-4.818,0.975-5.957-2.213
	c-0.442-1.238-1.085-2.458-1.871-3.512c-3.361-4.504-3.794-8.971-1.441-14.299c2.181-4.938,0.716-10.511,0.828-15.797
	c0.053-2.463,0.533-4.414,2.272-6.275c4.2-4.496,8.366-9.048,12.205-13.849c2.156-2.697,3.963-2.809,6.557-0.87
	c1.719,1.283,3.626,2.431,5.617,3.211c7.217,2.832,11.392,7.35,9.634,15.691c-0.402,1.907-0.055,3.979,2.682,3.449
	c4.654-0.899,7.631,1.63,10.182,4.805c3.143,3.912,7.02,5.677,12.037,5.544c3.646-0.096,7.303,0.432,10.959,0.502
	C77.396,34.582,79.639,35.045,78.393,38.554z"/>
</svg>
