<?xml version="1.0" encoding="iso-8859-1"?>
<!-- Generator: Adobe Illustrator 16.0.3, SVG Export Plug-In . SVG Version: 6.00 Build 0)  -->
<!DOCTYPE svg PUBLIC "-//W3C//DTD SVG 1.1//EN" "http://www.w3.org/Graphics/SVG/1.1/DTD/svg11.dtd">
<svg version="1.1" id="Capa_1" xmlns="http://www.w3.org/2000/svg" xmlns:xlink="http://www.w3.org/1999/xlink" x="0px" y="0px"
	 width="126.588px" height="114.814px" viewBox="0 0 126.588 114.814" style="enable-background:new 0 0 126.588 114.814;"
	 xml:space="preserve">
<style type="text/css">
<![CDATA[
	.st0{fill-rule:evenodd;clip-rule:evenodd;fill:#708998;}
	.st1{fill-rule:evenodd;clip-rule:evenodd;fill:#11365B;}
	.st2{fill-rule:evenodd;clip-rule:evenodd;fill:#11375E;}
	.st3{fill-rule:evenodd;clip-rule:evenodd;fill:#113860;}
	.st4{fill-rule:evenodd;clip-rule:evenodd;fill:#12365A;}
	.st5{fill-rule:evenodd;clip-rule:evenodd;fill:#12365B;}
	.st6{fill-rule:evenodd;clip-rule:evenodd;fill:#12375B;}
	.st7{fill-rule:evenodd;clip-rule:evenodd;fill:#12375D;}
	.st8{fill-rule:evenodd;clip-rule:evenodd;fill:#12385C;}
	.st9{fill-rule:evenodd;clip-rule:evenodd;fill:#12385F;}
	.st10{fill-rule:evenodd;clip-rule:evenodd;fill:#13395E;}
	.st11{fill-rule:evenodd;clip-rule:evenodd;fill:#133A5E;}
	.st12{fill-rule:evenodd;clip-rule:evenodd;fill:#133A5F;}
	.st13{fill-rule:evenodd;clip-rule:evenodd;fill:#133B5C;}
	.st14{fill-rule:evenodd;clip-rule:evenodd;fill:#133B5F;}
	.st15{fill-rule:evenodd;clip-rule:evenodd;fill:#133B60;}
	.st16{fill-rule:evenodd;clip-rule:evenodd;fill:#133C64;}
	.st17{fill-rule:evenodd;clip-rule:evenodd;fill:#143C61;}
	.st18{fill-rule:evenodd;clip-rule:evenodd;fill:#143C62;}
	.st19{fill-rule:evenodd;clip-rule:evenodd;fill:#143D5F;}
	.st20{fill-rule:evenodd;clip-rule:evenodd;fill:#144163;}
	.st21{fill-rule:evenodd;clip-rule:evenodd;fill:#153C60;}
	.st22{fill-rule:evenodd;clip-rule:evenodd;fill:#153E61;}
	.st23{fill-rule:evenodd;clip-rule:evenodd;fill:#153F67;}
	.st24{fill-rule:evenodd;clip-rule:evenodd;fill:#154163;}
	.st25{fill-rule:evenodd;clip-rule:evenodd;fill:#154167;}
	.st26{fill-rule:evenodd;clip-rule:evenodd;fill:#184063;}
	.st27{fill-rule:evenodd;clip-rule:evenodd;fill:#184266;}
]]>
</style>
<g>
	<path class="st20" d="M92.34,63.458c0.247,2.831,0.87,4.847,4.642,4.499c3.566-0.329,3.623,0.094,7.054,7.63
		C98,76.12,90.776,73.683,88.008,82.582c-2.302-3.168-3.84-5.742-5.824-7.909c-2.948-3.22-3.834-5.952,0.575-8.599
		c1.132-0.68,1.902-1.546,0.933-3.257c-2.921-5.162-7.276-7.906-13.057-8.756c-2.322-0.341-3.253,1.446-4.47,2.641
		c-1.762,1.732-3.229,2.611-5.373,0.517c-5.127-5.011-11.084-1.391-16.6-1.111c-2.569,0.13-2.917,7.913-0.297,8.956
		c4.185,1.665,5.59,4.774,6.007,8.807c0.483,4.689,3.793,8.053,5.752,12.051c0.705,1.44,2.169,2.846,0.034,4.231
		c-1.98,1.286-2.944,4.53-5.835,3.851c-1.974-0.463-3.987-1.661-3.935-4.472c0.029-1.626-0.448-3.262-0.854-5.905
		c-1.65,2.43-2.923,4.07-3.939,5.856c-1.219,2.141-2.972,3.386-5.215,4.34c-3.744,1.593-2.607-2.554-4.095-3.231
		c-4.021-1.833-9.017-2.316-12.445-0.533c-3.913,2.037-7.783,5.542-9.131,10.51c1.119,3.412-1.351,5.846-2.645,8.434
		c-1.032,2.063-3.116,0.389-4.717-0.095c-4.941-10.806-1.847-22.254-2.631-33.391c-0.144-2.039,1.633-1.694,2.897-1.705
		c3.832-0.034,7.679-0.222,11.491,0.049c3.24,0.229,5.231-0.525,4.894-4.148c-1.135-12.187,5.739-17.795,16.034-22.655
		C56.018,37.4,75.78,26.285,95.888,15.891c2.636-1.362,4.381-2.786,3.872-6.025c-0.31-1.969,0.21-3.454,2.491-4.181
		c5.53-1.763,10.984-3.765,16.512-5.685c1.383,3.853,0.427,6.599-2.545,9.002c-2.58,2.087-4.891,4.521-7.216,6.905
		c-3.824,3.922-3.178,8.987,1.462,11.97c4.343,2.791,8.726,5.521,13.049,8.34c4.028,2.627,4.103,5.103,0.198,7.735
		c-1.326,0.895-1.509,2.187-1.557,3.462c-0.11,2.967,3.429,0.21,3.921,2.38c-0.615,1.661-0.712,3.315,0.059,4.959
		c-2.083,4.136-5.083,6.433-10.077,6.173c-3.146-0.164-6.976-1.607-8.885,3.119c-0.872,2.161-2.625,0.06-3.638-0.644
		c-3.712-2.574-7.38-2.245-11.147-0.29c-1.314-0.29-0.557,0.76-0.707,1.171c-0.165,0.453-0.018,0.468,0.08-0.079
		C91.823,63.85,91.99,63.597,92.34,63.458z"/>
	<path class="st27" d="M2.879,108.906c5.635,0.029,5.38-5.142,7.36-8.339c3.842,4.354,1.172,8.732,0.052,13.107
		c-0.364,1.425-1.254,1.324-2.215,0.723C5.874,113.021,3.133,112.134,2.879,108.906z"/>
	<path class="st2" d="M92.34,63.458c-0.144,1.119-0.287,2.238-0.482,3.758c-0.936-1.747-0.917-3.113-0.281-4.495
		c0.022-0.049,0.32-0.02,0.454,0.046c0.141,0.07,0.239,0.227,0.356,0.345L92.34,63.458z"/>
	<path class="st4" d="M126.134,54.753c-1.418-1.636-1.387-3.29-0.059-4.959C126.095,51.447,126.114,53.101,126.134,54.753z"/>
</g>
</svg>
