<?xml version="1.0" encoding="iso-8859-1"?>
<!-- Generator: Adobe Illustrator 16.0.3, SVG Export Plug-In . SVG Version: 6.00 Build 0)  -->
<!DOCTYPE svg PUBLIC "-//W3C//DTD SVG 1.1//EN" "http://www.w3.org/Graphics/SVG/1.1/DTD/svg11.dtd">
<svg version="1.1" id="Capa_1" xmlns="http://www.w3.org/2000/svg" xmlns:xlink="http://www.w3.org/1999/xlink" x="0px" y="0px"
	 width="88.84px" height="57.729px" viewBox="0 0 88.84 57.729" style="enable-background:new 0 0 88.84 57.729;"
	 xml:space="preserve">
<style type="text/css">
<![CDATA[
	.st0{fill-rule:evenodd;clip-rule:evenodd;fill:#708998;}
	.st1{fill-rule:evenodd;clip-rule:evenodd;fill:#11365B;}
	.st2{fill-rule:evenodd;clip-rule:evenodd;fill:#11375E;}
	.st3{fill-rule:evenodd;clip-rule:evenodd;fill:#113860;}
	.st4{fill-rule:evenodd;clip-rule:evenodd;fill:#12365A;}
	.st5{fill-rule:evenodd;clip-rule:evenodd;fill:#12365B;}
	.st6{fill-rule:evenodd;clip-rule:evenodd;fill:#12375B;}
	.st7{fill-rule:evenodd;clip-rule:evenodd;fill:#12375D;}
	.st8{fill-rule:evenodd;clip-rule:evenodd;fill:#12385C;}
	.st9{fill-rule:evenodd;clip-rule:evenodd;fill:#12385F;}
	.st10{fill-rule:evenodd;clip-rule:evenodd;fill:#13395E;}
	.st11{fill-rule:evenodd;clip-rule:evenodd;fill:#133A5E;}
	.st12{fill-rule:evenodd;clip-rule:evenodd;fill:#133A5F;}
	.st13{fill-rule:evenodd;clip-rule:evenodd;fill:#133B5C;}
	.st14{fill-rule:evenodd;clip-rule:evenodd;fill:#133B5F;}
	.st15{fill-rule:evenodd;clip-rule:evenodd;fill:#133B60;}
	.st16{fill-rule:evenodd;clip-rule:evenodd;fill:#133C64;}
	.st17{fill-rule:evenodd;clip-rule:evenodd;fill:#143C61;}
	.st18{fill-rule:evenodd;clip-rule:evenodd;fill:#143C62;}
	.st19{fill-rule:evenodd;clip-rule:evenodd;fill:#143D5F;}
	.st20{fill-rule:evenodd;clip-rule:evenodd;fill:#144163;}
	.st21{fill-rule:evenodd;clip-rule:evenodd;fill:#153C60;}
	.st22{fill-rule:evenodd;clip-rule:evenodd;fill:#153E61;}
	.st23{fill-rule:evenodd;clip-rule:evenodd;fill:#153F67;}
	.st24{fill-rule:evenodd;clip-rule:evenodd;fill:#154163;}
	.st25{fill-rule:evenodd;clip-rule:evenodd;fill:#154167;}
	.st26{fill-rule:evenodd;clip-rule:evenodd;fill:#184063;}
	.st27{fill-rule:evenodd;clip-rule:evenodd;fill:#184266;}
]]>
</style>
<g>
	<path class="st20" d="M2.85,1.222C8.607,4.76,14.365,8.297,20.123,11.834c3.539,1.522,7.309,0.13,10.909,0.865
		c1.619,6.269,6.714,6.677,11.888,7.257c9.922,1.112,10.243,1.215,9.803,10.848c-0.244,5.316,3.336,8.025,5.854,11.58
		c0.575,0.812,1.462,1.065,2.067,0.267c1.713-2.259,5.326-3.253,4.828-7c-0.59-4.458-0.976-8.965-1.946-13.341
		c-0.695-3.135,0.702-3.502,3.159-4.702c8.681-4.238,14.576,0.995,20.689,5.417c2.453,1.774,1.608,12.049-0.93,14.269
		c-7.275,6.363-14.702,12.558-21.881,19.028c-2.24,2.02-3.702,1.694-5.956,0.098c-12.781-9.049-25.816-17.744-38.46-26.978
		c-4.145-3.026-7.676-3.856-12.1-1.214c-1.526,0.912-3.41,1.229-5.131,1.818c-1.689-0.669-1.974-2.104-1.987-3.673
		C0.872,19.21,0.876,12.047,0.93,4.884C0.941,3.356,1.044,1.831,2.85,1.222z"/>
	<path class="st21" d="M2.85,1.222c-1.537,9.612-1.623,19.22,0.068,28.825C1.05,31.544-0.011,31.444,0,28.704
		c0.033-8.826,0.029-17.653,0.004-26.479C-0.005-0.972,1.293-0.175,2.85,1.222z"/>
	<path class="st1" d="M31.032,12.699c-3.701,0.561-7.401,0.381-11.098-0.057c-0.042-0.005-0.1-0.278-0.067-0.404
		c0.038-0.147,0.166-0.27,0.256-0.404C23.781,11.843,27.543,10.56,31.032,12.699z"/>
</g>
</svg>
