<?xml version="1.0" encoding="iso-8859-1"?>
<!-- Generator: Adobe Illustrator 16.0.3, SVG Export Plug-In . SVG Version: 6.00 Build 0)  -->
<!DOCTYPE svg PUBLIC "-//W3C//DTD SVG 1.1//EN" "http://www.w3.org/Graphics/SVG/1.1/DTD/svg11.dtd">
<svg version="1.1" id="Capa_1" xmlns="http://www.w3.org/2000/svg" xmlns:xlink="http://www.w3.org/1999/xlink" x="0px" y="0px"
	 width="156.158px" height="150.685px" viewBox="0 0 156.158 150.685" style="enable-background:new 0 0 156.158 150.685;"
	 xml:space="preserve">
<style type="text/css">
<![CDATA[
	.st0{fill-rule:evenodd;clip-rule:evenodd;fill:#708998;}
	.st1{fill-rule:evenodd;clip-rule:evenodd;fill:#11365B;}
	.st2{fill-rule:evenodd;clip-rule:evenodd;fill:#11375E;}
	.st3{fill-rule:evenodd;clip-rule:evenodd;fill:#113860;}
	.st4{fill-rule:evenodd;clip-rule:evenodd;fill:#12365A;}
	.st5{fill-rule:evenodd;clip-rule:evenodd;fill:#12365B;}
	.st6{fill-rule:evenodd;clip-rule:evenodd;fill:#12375B;}
	.st7{fill-rule:evenodd;clip-rule:evenodd;fill:#12375D;}
	.st8{fill-rule:evenodd;clip-rule:evenodd;fill:#12385C;}
	.st9{fill-rule:evenodd;clip-rule:evenodd;fill:#12385F;}
	.st10{fill-rule:evenodd;clip-rule:evenodd;fill:#13395E;}
	.st11{fill-rule:evenodd;clip-rule:evenodd;fill:#133A5E;}
	.st12{fill-rule:evenodd;clip-rule:evenodd;fill:#133A5F;}
	.st13{fill-rule:evenodd;clip-rule:evenodd;fill:#133B5C;}
	.st14{fill-rule:evenodd;clip-rule:evenodd;fill:#133B5F;}
	.st15{fill-rule:evenodd;clip-rule:evenodd;fill:#133B60;}
	.st16{fill-rule:evenodd;clip-rule:evenodd;fill:#133C64;}
	.st17{fill-rule:evenodd;clip-rule:evenodd;fill:#143C61;}
	.st18{fill-rule:evenodd;clip-rule:evenodd;fill:#143C62;}
	.st19{fill-rule:evenodd;clip-rule:evenodd;fill:#143D5F;}
	.st20{fill-rule:evenodd;clip-rule:evenodd;fill:#144163;}
	.st21{fill-rule:evenodd;clip-rule:evenodd;fill:#153C60;}
	.st22{fill-rule:evenodd;clip-rule:evenodd;fill:#153E61;}
	.st23{fill-rule:evenodd;clip-rule:evenodd;fill:#153F67;}
	.st24{fill-rule:evenodd;clip-rule:evenodd;fill:#154163;}
	.st25{fill-rule:evenodd;clip-rule:evenodd;fill:#154167;}
	.st26{fill-rule:evenodd;clip-rule:evenodd;fill:#184063;}
	.st27{fill-rule:evenodd;clip-rule:evenodd;fill:#184266;}
]]>
</style>
<path class="st20" d="M27.197,148.972c6.01-3.562,4.762-9.011,4.239-14.219c-0.248-2.462,0.855-6.135-3.977-5.398
	c-0.343,0.053-0.969-0.862-1.25-1.434c-2.5-5.077-4.965-10.172-7.408-15.276c-0.402-0.841-1.311-2.066-0.007-2.584
	c5.411-2.149,2.985-6.188,2.382-9.664c-0.395-2.278-0.164-3.537,2.251-4.631c3.688-1.67,3.612-7.854,0.815-10.645
	c-4.859-4.85-9.684-3.101-14.988-1.195C-0.251,87.341-0.7,86.8,0.448,76.607c0.219-1.943,1.352-2.937,2.553-4.052
	c19.172-17.804,38.372-35.578,57.492-53.436c1.856-1.734,3.716-2.694,6.225-2.324c0.327,0.048,0.677-0.048,0.998,0.015
	c13.604,2.661,23.782-2.6,31.489-13.593c2.8-3.994,5.204-4.301,9.275-0.74c14.924,13.054,30.233,25.671,45.523,38.3
	c2.785,2.299,3.027,3.32-0.195,5.514c-15.837,10.781-31.525,21.783-47.182,32.825c-2.138,1.508-3.386,1.632-5.403-0.298
	c-3.19-3.052-6.003-8.743-9.85-8.244c-3.234,0.419-5.852,5.862-8.677,9.138c-12.518,14.514-24.918,29.13-37.591,43.506
	c-2.682,3.041-3.519,5.289-0.101,8.02c2.667,2.13,2.494,4.712,1.373,7.589c-0.569,1.461-1.347,2.311-2.91,1.994
	c-4.07-0.823-5.394,1.695-6.666,4.892C34.425,151.675,34.28,151.619,27.197,148.972z"/>
</svg>
