<?xml version="1.0" encoding="iso-8859-1"?>
<!-- Generator: Adobe Illustrator 16.0.3, SVG Export Plug-In . SVG Version: 6.00 Build 0)  -->
<!DOCTYPE svg PUBLIC "-//W3C//DTD SVG 1.1//EN" "http://www.w3.org/Graphics/SVG/1.1/DTD/svg11.dtd">
<svg version="1.1" id="Capa_1" xmlns="http://www.w3.org/2000/svg" xmlns:xlink="http://www.w3.org/1999/xlink" x="0px" y="0px"
viewBox="0 0 169.679 160.513" style="enable-background:new 0 0 169.679 160.513;"
	 xml:space="preserve">
<style type="text/css">
<![CDATA[
	.st0{fill-rule:evenodd;clip-rule:evenodd;fill:#708998;}
	.st1{fill-rule:evenodd;clip-rule:evenodd;fill:#11365B;}
	.st2{fill-rule:evenodd;clip-rule:evenodd;fill:#11375E;}
	.st3{fill-rule:evenodd;clip-rule:evenodd;fill:#113860;}
	.st4{fill-rule:evenodd;clip-rule:evenodd;fill:#12365A;}
	.st5{fill-rule:evenodd;clip-rule:evenodd;fill:#12365B;}
	.st6{fill-rule:evenodd;clip-rule:evenodd;fill:#12375B;}
	.st7{fill-rule:evenodd;clip-rule:evenodd;fill:#12375D;}
	.st8{fill-rule:evenodd;clip-rule:evenodd;fill:#12385C;}
	.st9{fill-rule:evenodd;clip-rule:evenodd;fill:#12385F;}
	.st10{fill-rule:evenodd;clip-rule:evenodd;fill:#13395E;}
	.st11{fill-rule:evenodd;clip-rule:evenodd;fill:#133A5E;}
	.st12{fill-rule:evenodd;clip-rule:evenodd;fill:#133A5F;}
	.st13{fill-rule:evenodd;clip-rule:evenodd;fill:#133B5C;}
	.st14{fill-rule:evenodd;clip-rule:evenodd;fill:#133B5F;}
	.st15{fill-rule:evenodd;clip-rule:evenodd;fill:#133B60;}
	.st16{fill-rule:evenodd;clip-rule:evenodd;fill:#133C64;}
	.st17{fill-rule:evenodd;clip-rule:evenodd;fill:#143C61;}
	.st18{fill-rule:evenodd;clip-rule:evenodd;fill:#143C62;}
	.st19{fill-rule:evenodd;clip-rule:evenodd;fill:#143D5F;}
	.st20{fill-rule:evenodd;clip-rule:evenodd;fill:#144163;}
	.st21{fill-rule:evenodd;clip-rule:evenodd;fill:#153C60;}
	.st22{fill-rule:evenodd;clip-rule:evenodd;fill:#153E61;}
	.st23{fill-rule:evenodd;clip-rule:evenodd;fill:#153F67;}
	.st24{fill-rule:evenodd;clip-rule:evenodd;fill:#154163;}
	.st25{fill-rule:evenodd;clip-rule:evenodd;fill:#154167;}
	.st26{fill-rule:evenodd;clip-rule:evenodd;fill:#184063;}
	.st27{fill-rule:evenodd;clip-rule:evenodd;fill:#184266;}
]]>
</style>
<g>
	<path class="st20" d="M11.689,43.488C6.305,36.1,1.101,28.737,1.982,18.771c0.438-4.953,0.17-9.998-0.148-14.978
		C1.625,0.515,2.175-0.434,5.827,0.171c30.377,5.032,60.795,9.815,91.198,14.689c19.556,3.136,39.095,6.374,58.673,9.366
		c2.962,0.453,3.831,1.584,3.975,4.412c0.51,9.977,1.251,19.943,1.923,29.912c0.499,7.395,0.511,7.395,8.084,8.354
		c-3.229,3.526-6.256,6.748-9.177,10.063c-1.287,1.461-2.93,1.363-4.572,1.459c-4.155,0.243-8.354,0.964-12.456,0.6
		c-7.813-0.693-13.276,2.524-18.739,7.917c-17.064,16.843-34.654,33.154-52.051,49.659c-1.079,1.024-2.256,1.944-3.387,2.912
		c-2.084,1.628-0.959,3.889-0.95,5.804c0.022,4.695-0.593,9.419,0.34,14.092c-6.776,2.11-7.349,1.541-9.05-4.749
		c-3.064-11.335-1.582-22.843-1.768-34.277c-0.053-3.262-1.072-5.114-3.755-6.798c-8.033-5.042-16.035-10.155-23.776-15.625
		c-3.086-2.181-5.525-2.511-8.256-0.008c-3.551,3.253-6.054,2.165-8.825-1.365c-3.588-4.571-7.687-8.756-11.72-12.958
		c-1.875-1.953-2.352-3.119,0.393-4.824c7.209-4.476,14.274-9.187,21.308-13.936c1.79-1.208,3.649-1.392,5.647-1.511
		c12.96-0.775,25.912-1.723,38.88-2.298c4.224-0.188,4.562-1.48,3.06-5.044c-2.596-6.159-10.61-11.945-17.352-11.954
		c-12.322-0.016-24.644,0.017-36.966-0.032c-1.615-0.006-3.334,0.514-4.843-0.554c3.735-1.17,7.569-0.475,11.35-0.512
		c11.063-0.108,22.128-0.04,33.192-0.055c-14.229-0.009-28.458-0.02-42.687-0.016C12.829,42.893,12.206,43.003,11.689,43.488z"/>
	<path class="st8" d="M68.686,159.409c-1.059-6.67-2.257-13.345,0.61-19.896C69.093,146.145,68.89,152.777,68.686,159.409z"/>
	<path class="st17" d="M11.689,43.488c0.717-0.352,1.434-1.007,2.152-1.01c14.598-0.06,29.196-0.045,43.797,0.996
		c-15.326,0-30.651,0-45.977,0L11.689,43.488z"/>
</g>
</svg>
