<?xml version="1.0" encoding="iso-8859-1"?>
<!-- Generator: Adobe Illustrator 16.0.3, SVG Export Plug-In . SVG Version: 6.00 Build 0)  -->
<!DOCTYPE svg PUBLIC "-//W3C//DTD SVG 1.1//EN" "http://www.w3.org/Graphics/SVG/1.1/DTD/svg11.dtd">
<svg version="1.1" id="Capa_1" xmlns="http://www.w3.org/2000/svg" xmlns:xlink="http://www.w3.org/1999/xlink" x="0px" y="0px"
	 width="27.634px" height="41.369px" viewBox="0 0 27.634 41.369" style="enable-background:new 0 0 27.634 41.369;"
	 xml:space="preserve">
<style type="text/css">
<![CDATA[
	.st0{fill-rule:evenodd;clip-rule:evenodd;fill:#708998;}
	.st1{fill-rule:evenodd;clip-rule:evenodd;fill:#11365B;}
	.st2{fill-rule:evenodd;clip-rule:evenodd;fill:#11375E;}
	.st3{fill-rule:evenodd;clip-rule:evenodd;fill:#113860;}
	.st4{fill-rule:evenodd;clip-rule:evenodd;fill:#12365A;}
	.st5{fill-rule:evenodd;clip-rule:evenodd;fill:#12365B;}
	.st6{fill-rule:evenodd;clip-rule:evenodd;fill:#12375B;}
	.st7{fill-rule:evenodd;clip-rule:evenodd;fill:#12375D;}
	.st8{fill-rule:evenodd;clip-rule:evenodd;fill:#12385C;}
	.st9{fill-rule:evenodd;clip-rule:evenodd;fill:#12385F;}
	.st10{fill-rule:evenodd;clip-rule:evenodd;fill:#13395E;}
	.st11{fill-rule:evenodd;clip-rule:evenodd;fill:#133A5E;}
	.st12{fill-rule:evenodd;clip-rule:evenodd;fill:#133A5F;}
	.st13{fill-rule:evenodd;clip-rule:evenodd;fill:#133B5C;}
	.st14{fill-rule:evenodd;clip-rule:evenodd;fill:#133B5F;}
	.st15{fill-rule:evenodd;clip-rule:evenodd;fill:#133B60;}
	.st16{fill-rule:evenodd;clip-rule:evenodd;fill:#133C64;}
	.st17{fill-rule:evenodd;clip-rule:evenodd;fill:#143C61;}
	.st18{fill-rule:evenodd;clip-rule:evenodd;fill:#143C62;}
	.st19{fill-rule:evenodd;clip-rule:evenodd;fill:#143D5F;}
	.st20{fill-rule:evenodd;clip-rule:evenodd;fill:#144163;}
	.st21{fill-rule:evenodd;clip-rule:evenodd;fill:#153C60;}
	.st22{fill-rule:evenodd;clip-rule:evenodd;fill:#153E61;}
	.st23{fill-rule:evenodd;clip-rule:evenodd;fill:#153F67;}
	.st24{fill-rule:evenodd;clip-rule:evenodd;fill:#154163;}
	.st25{fill-rule:evenodd;clip-rule:evenodd;fill:#154167;}
	.st26{fill-rule:evenodd;clip-rule:evenodd;fill:#184063;}
	.st27{fill-rule:evenodd;clip-rule:evenodd;fill:#184266;}
]]>
</style>
<g>
	<path class="st20" d="M0.897,6.906C8.336,4.074,16.101,2.49,23.873,0.937c1.86,0.367,2.947,1.397,2.936,3.391
		c-0.066,11.6,0.385,23.203-0.253,34.798c-0.016,0.292-0.325,0.566-0.504,0.846C18,40.752,9.941,40.435,1.883,40.128
		c-1.46-1.524-0.994-3.452-0.999-5.231C0.855,25.567,0.812,16.236,0.897,6.906z"/>
	<path class="st18" d="M25.858,39.885c0-11.076-0.021-22.153,0.021-33.229c0.01-2.188,0.126-4.323-2.007-5.719
		c1.968-1.027,3.783-2.008,3.761,1.694c-0.073,12.335-0.038,24.67-0.086,37.005c-0.001,0.39-0.457,0.778-0.701,1.167
		C26.423,40.598,26.089,40.297,25.858,39.885z"/>
	<path class="st19" d="M0.897,6.906c1.67,1.66,0.903,3.766,0.921,5.665c0.084,9.104,0.04,18.21,0.042,27.316
		c-0.224,0.407-0.546,0.705-0.98,0.876c-1.604-9.343-0.322-18.757-0.638-28.133C0.18,10.748-0.558,8.664,0.897,6.906z"/>
	<path class="st4" d="M0.88,40.764c0.327-0.292,0.653-0.584,0.98-0.876c7.999-0.001,15.999-0.001,23.998-0.002
		c0.329,0.306,0.659,0.612,0.987,0.919C18.189,41.529,9.534,41.6,0.88,40.764z"/>
</g>
</svg>
