<?xml version="1.0" encoding="iso-8859-1"?>
<!-- Generator: Adobe Illustrator 16.0.3, SVG Export Plug-In . SVG Version: 6.00 Build 0)  -->
<!DOCTYPE svg PUBLIC "-//W3C//DTD SVG 1.1//EN" "http://www.w3.org/Graphics/SVG/1.1/DTD/svg11.dtd">
<svg version="1.1" id="Capa_1" xmlns="http://www.w3.org/2000/svg" xmlns:xlink="http://www.w3.org/1999/xlink" x="0px" y="0px"
	 width="68.545px" height="52.077px" viewBox="0 0 68.545 52.077" style="enable-background:new 0 0 68.545 52.077;"
	 xml:space="preserve">
<style type="text/css">
<![CDATA[
	.st0{fill-rule:evenodd;clip-rule:evenodd;fill:#708998;}
	.st1{fill-rule:evenodd;clip-rule:evenodd;fill:#11365B;}
	.st2{fill-rule:evenodd;clip-rule:evenodd;fill:#11375E;}
	.st3{fill-rule:evenodd;clip-rule:evenodd;fill:#113860;}
	.st4{fill-rule:evenodd;clip-rule:evenodd;fill:#12365A;}
	.st5{fill-rule:evenodd;clip-rule:evenodd;fill:#12365B;}
	.st6{fill-rule:evenodd;clip-rule:evenodd;fill:#12375B;}
	.st7{fill-rule:evenodd;clip-rule:evenodd;fill:#12375D;}
	.st8{fill-rule:evenodd;clip-rule:evenodd;fill:#12385C;}
	.st9{fill-rule:evenodd;clip-rule:evenodd;fill:#12385F;}
	.st10{fill-rule:evenodd;clip-rule:evenodd;fill:#13395E;}
	.st11{fill-rule:evenodd;clip-rule:evenodd;fill:#133A5E;}
	.st12{fill-rule:evenodd;clip-rule:evenodd;fill:#133A5F;}
	.st13{fill-rule:evenodd;clip-rule:evenodd;fill:#133B5C;}
	.st14{fill-rule:evenodd;clip-rule:evenodd;fill:#133B5F;}
	.st15{fill-rule:evenodd;clip-rule:evenodd;fill:#133B60;}
	.st16{fill-rule:evenodd;clip-rule:evenodd;fill:#133C64;}
	.st17{fill-rule:evenodd;clip-rule:evenodd;fill:#143C61;}
	.st18{fill-rule:evenodd;clip-rule:evenodd;fill:#143C62;}
	.st19{fill-rule:evenodd;clip-rule:evenodd;fill:#143D5F;}
	.st20{fill-rule:evenodd;clip-rule:evenodd;fill:#144163;}
	.st21{fill-rule:evenodd;clip-rule:evenodd;fill:#153C60;}
	.st22{fill-rule:evenodd;clip-rule:evenodd;fill:#153E61;}
	.st23{fill-rule:evenodd;clip-rule:evenodd;fill:#153F67;}
	.st24{fill-rule:evenodd;clip-rule:evenodd;fill:#154163;}
	.st25{fill-rule:evenodd;clip-rule:evenodd;fill:#154167;}
	.st26{fill-rule:evenodd;clip-rule:evenodd;fill:#184063;}
	.st27{fill-rule:evenodd;clip-rule:evenodd;fill:#184266;}
]]>
</style>
<g>
	<path class="st20" d="M6.974,1.32C26.482,4.706,45.99,8.099,65.503,11.463c1.935,0.333,3.072,1.163,2.738,3.309
		c-0.076,0.492-0.176,1.013-0.096,1.492c1.791,10.728-2.469,17.64-12.382,22.282c-7.028,3.292-13.337,8.164-19.833,12.526
		c-2.197,1.475-3.598,1.302-5.613-0.377c-8.951-7.462-16.964-16.495-29.404-18.395c0.184-8.087-0.027-16.177,0.094-24.265
		C1.092,2.438,1.551,1.985,6.974,1.32z"/>
	<path class="st22" d="M6.974,1.32C2.442,2.175,1.896,5.467,1.961,9.279c0.118,6.994,0.044,13.993,0.222,20.985
		c0.031,1.217,0.051,1.903-1.27,2.037c-1.459-10.122-0.857-20.325-0.33-30.428C0.778-1.874,4.719,1.126,6.974,1.32z"/>
</g>
</svg>
