<?xml version="1.0" encoding="iso-8859-1"?>
<!-- Generator: Adobe Illustrator 16.0.3, SVG Export Plug-In . SVG Version: 6.00 Build 0)  -->
<!DOCTYPE svg PUBLIC "-//W3C//DTD SVG 1.1//EN" "http://www.w3.org/Graphics/SVG/1.1/DTD/svg11.dtd">
<svg version="1.1" id="Capa_1" xmlns="http://www.w3.org/2000/svg" xmlns:xlink="http://www.w3.org/1999/xlink" x="0px" y="0px"
	 width="37.539px" height="35.64px" viewBox="0 0 37.539 35.64" style="enable-background:new 0 0 37.539 35.64;"
	 xml:space="preserve">
<style type="text/css">
<![CDATA[
	.st0{fill-rule:evenodd;clip-rule:evenodd;fill:#708998;}
	.st1{fill-rule:evenodd;clip-rule:evenodd;fill:#11365B;}
	.st2{fill-rule:evenodd;clip-rule:evenodd;fill:#11375E;}
	.st3{fill-rule:evenodd;clip-rule:evenodd;fill:#113860;}
	.st4{fill-rule:evenodd;clip-rule:evenodd;fill:#12365A;}
	.st5{fill-rule:evenodd;clip-rule:evenodd;fill:#12365B;}
	.st6{fill-rule:evenodd;clip-rule:evenodd;fill:#12375B;}
	.st7{fill-rule:evenodd;clip-rule:evenodd;fill:#12375D;}
	.st8{fill-rule:evenodd;clip-rule:evenodd;fill:#12385C;}
	.st9{fill-rule:evenodd;clip-rule:evenodd;fill:#12385F;}
	.st10{fill-rule:evenodd;clip-rule:evenodd;fill:#13395E;}
	.st11{fill-rule:evenodd;clip-rule:evenodd;fill:#133A5E;}
	.st12{fill-rule:evenodd;clip-rule:evenodd;fill:#133A5F;}
	.st13{fill-rule:evenodd;clip-rule:evenodd;fill:#133B5C;}
	.st14{fill-rule:evenodd;clip-rule:evenodd;fill:#133B5F;}
	.st15{fill-rule:evenodd;clip-rule:evenodd;fill:#133B60;}
	.st16{fill-rule:evenodd;clip-rule:evenodd;fill:#133C64;}
	.st17{fill-rule:evenodd;clip-rule:evenodd;fill:#143C61;}
	.st18{fill-rule:evenodd;clip-rule:evenodd;fill:#143C62;}
	.st19{fill-rule:evenodd;clip-rule:evenodd;fill:#143D5F;}
	.st20{fill-rule:evenodd;clip-rule:evenodd;fill:#144163;}
	.st21{fill-rule:evenodd;clip-rule:evenodd;fill:#153C60;}
	.st22{fill-rule:evenodd;clip-rule:evenodd;fill:#153E61;}
	.st23{fill-rule:evenodd;clip-rule:evenodd;fill:#153F67;}
	.st24{fill-rule:evenodd;clip-rule:evenodd;fill:#154163;}
	.st25{fill-rule:evenodd;clip-rule:evenodd;fill:#154167;}
	.st26{fill-rule:evenodd;clip-rule:evenodd;fill:#184063;}
	.st27{fill-rule:evenodd;clip-rule:evenodd;fill:#184266;}
]]>
</style>
<g>
	<path class="st24" d="M33.181,1.679c6.237,7.105,6.053,7.955-2.33,10.755c-7.408,2.475-7.408,2.475-6.042,10.507
		c1.503,8.83,1.503,8.83-1.154,12.698c-3.646-2-2.516-5.773-3.19-8.803c-0.858-3.866,0.459-8.743-2.08-11.521
		c-2.427-2.654-7.287-1.224-10.979-2.169c-0.803-0.206-1.627-0.331-2.441-0.494c-2.21-0.86-4.97-1.192-3.993-4.793
		C1.646,5.375-0.57,1.51,4.32,1.126c9.319,0.81,18.665-0.021,27.989,0.449C32.6,1.608,32.891,1.644,33.181,1.679z"/>
	<path class="st26" d="M3.998,1.838C0.745,4.868,1.16,9.521,4.965,12.653c-3.421,0.43-5.073-0.536-4.959-4.521
		c0.229-7.943-0.001-7.949,7.785-7.95c7.107,0,14.217-0.063,21.322,0.044c1.409,0.021,3.47-1.099,4.067,1.452l-0.281,0.218
		C23.265,2.55,13.631,2.684,3.998,1.838z"/>
	<path class="st25" d="M3.998,1.838c9.635,0.02,19.269,0.039,28.902,0.059C26.527,3.976,19.979,2.525,13.521,2.74
		C10.377,2.844,6.999,3.837,3.998,1.838z"/>
</g>
</svg>
