<?xml version="1.0" encoding="iso-8859-1"?>
<!-- Generator: Adobe Illustrator 16.0.3, SVG Export Plug-In . SVG Version: 6.00 Build 0)  -->
<!DOCTYPE svg PUBLIC "-//W3C//DTD SVG 1.1//EN" "http://www.w3.org/Graphics/SVG/1.1/DTD/svg11.dtd">
<svg version="1.1" id="Capa_1" xmlns="http://www.w3.org/2000/svg" xmlns:xlink="http://www.w3.org/1999/xlink" x="0px" y="0px"
	 width="145.202px" height="92.932px" viewBox="0 0 145.202 92.932" style="enable-background:new 0 0 145.202 92.932;"
	 xml:space="preserve">
<style type="text/css">
<![CDATA[
	.st0{fill-rule:evenodd;clip-rule:evenodd;fill:#708998;}
	.st1{fill-rule:evenodd;clip-rule:evenodd;fill:#11365B;}
	.st2{fill-rule:evenodd;clip-rule:evenodd;fill:#11375E;}
	.st3{fill-rule:evenodd;clip-rule:evenodd;fill:#113860;}
	.st4{fill-rule:evenodd;clip-rule:evenodd;fill:#12365A;}
	.st5{fill-rule:evenodd;clip-rule:evenodd;fill:#12365B;}
	.st6{fill-rule:evenodd;clip-rule:evenodd;fill:#12375B;}
	.st7{fill-rule:evenodd;clip-rule:evenodd;fill:#12375D;}
	.st8{fill-rule:evenodd;clip-rule:evenodd;fill:#12385C;}
	.st9{fill-rule:evenodd;clip-rule:evenodd;fill:#12385F;}
	.st10{fill-rule:evenodd;clip-rule:evenodd;fill:#13395E;}
	.st11{fill-rule:evenodd;clip-rule:evenodd;fill:#133A5E;}
	.st12{fill-rule:evenodd;clip-rule:evenodd;fill:#133A5F;}
	.st13{fill-rule:evenodd;clip-rule:evenodd;fill:#133B5C;}
	.st14{fill-rule:evenodd;clip-rule:evenodd;fill:#133B5F;}
	.st15{fill-rule:evenodd;clip-rule:evenodd;fill:#133B60;}
	.st16{fill-rule:evenodd;clip-rule:evenodd;fill:#133C64;}
	.st17{fill-rule:evenodd;clip-rule:evenodd;fill:#143C61;}
	.st18{fill-rule:evenodd;clip-rule:evenodd;fill:#143C62;}
	.st19{fill-rule:evenodd;clip-rule:evenodd;fill:#143D5F;}
	.st20{fill-rule:evenodd;clip-rule:evenodd;fill:#144163;}
	.st21{fill-rule:evenodd;clip-rule:evenodd;fill:#153C60;}
	.st22{fill-rule:evenodd;clip-rule:evenodd;fill:#153E61;}
	.st23{fill-rule:evenodd;clip-rule:evenodd;fill:#153F67;}
	.st24{fill-rule:evenodd;clip-rule:evenodd;fill:#154163;}
	.st25{fill-rule:evenodd;clip-rule:evenodd;fill:#154167;}
	.st26{fill-rule:evenodd;clip-rule:evenodd;fill:#184063;}
	.st27{fill-rule:evenodd;clip-rule:evenodd;fill:#184266;}
]]>
</style>
<g>
	<path class="st20" d="M32.253,67.073c-5.493-0.096-10.986-0.168-16.479-0.301c-1.98-0.049-4.117,0.197-5.908-0.451
		C2.047,63.493-1.568,56.003,0.639,47.786c0.676-2.516,6.62-5.678,9.823-5.112c5.737,1.015,11.455,2.136,17.188,3.18
		c4.998,0.909,14.566-4.769,15.412-9.749c0.629-3.697,2.171-4.112,5.329-3.553c2.936,0.52,6.113-0.039,8.938,0.753
		c7.658,2.146,12.442-0.45,14.576-7.964c2.261-7.97,7.65-9.866,15.099-8.181c1.29,0.292,2.673,0.159,3.973,0.419
		c3.009,0.602,4.513-0.119,4.894-3.594c0.355-3.241-0.675-8.443,5.798-6.941c0.255,0.06,0.886-0.541,0.987-0.926
		c2.199-8.361,9.652-4.151,14.547-5.993c1.703-0.64,1.477,1.331,1.469,2.377c-0.041,6.331-0.225,12.663-0.188,18.993
		c0.014,2.336-1.003,2.678-3.049,2.668c-4.346-0.018-8.257-0.752-10.85-5.371c-1.276,2.179-0.767,4.004-0.912,5.693
		c-0.126,1.457-0.382,2.354-2.238,2.566c-2.78,0.318-5.106,6.754-3.587,9.215c0.613,0.995,1.413,0.584,2.159,0.475
		c1.151-0.17,2.336-0.313,3.422-0.701c6.015-2.15,11.431-1.004,16.264,2.981c5.835,4.812,12.754,2.414,19.212,3.172
		c2.021,0.237,5.758-2.076,5.81,2.215c0.039,3.347,2.353,8.067-3.448,9.415c-3.159,0.734-4.144,2.607-3.938,5.779
		c0.27,4.148-0.024,8.332,0.099,12.494c0.074,2.523-0.749,3.25-3.242,2.555c-4.649-1.295-9.373-2.32-14.037-3.564
		c-2.2-0.586-3.627-0.131-5.044,1.848c-3.226,4.501-6.491,8.847-5.387,14.901c0.545,2.979-1.025,3.152-3.501,2.676
		c-7.683-1.475-15.445-2.555-23.099-4.16c-3.295-0.689-5.542-0.211-6.835,2.986c-1.705,4.211-4.336,4.191-8.202,2.625
		c-5.321-2.156-10.702-3.723-11.482-10.689c-0.254-2.264-2.325-1.934-3.984-1.955c-6.323-0.078-12.648-0.168-18.973-0.254
		c-0.998-2.813-0.205-5.733-0.52-8.581C32.992,69.329,33.887,67.858,32.253,67.073z"/>
	<path class="st6" d="M32.253,67.073c3.023,3.701,0.595,8.033,1.387,11.991C30.49,75.378,33.085,71.028,32.253,67.073z"/>
	<path class="st14" d="M125.885,43.229c5.583,0,11.167,0,16.75,0c0,0.165,0,0.329,0,0.494c-5.583,0-11.167,0-16.749,0
		C125.885,43.558,125.885,43.394,125.885,43.229z"/>
</g>
</svg>
