<?xml version="1.0" encoding="iso-8859-1"?>
<!-- Generator: Adobe Illustrator 16.0.3, SVG Export Plug-In . SVG Version: 6.00 Build 0)  -->
<!DOCTYPE svg PUBLIC "-//W3C//DTD SVG 1.1//EN" "http://www.w3.org/Graphics/SVG/1.1/DTD/svg11.dtd">
<svg version="1.1" id="Capa_1" xmlns="http://www.w3.org/2000/svg" xmlns:xlink="http://www.w3.org/1999/xlink" x="0px" y="0px"
	 width="118.005px" height="132.41px" viewBox="0 0 118.005 132.41" style="enable-background:new 0 0 118.005 132.41;"
	 xml:space="preserve">
<style type="text/css">
<![CDATA[
	.st0{fill-rule:evenodd;clip-rule:evenodd;fill:#708998;}
	.st1{fill-rule:evenodd;clip-rule:evenodd;fill:#11365B;}
	.st2{fill-rule:evenodd;clip-rule:evenodd;fill:#11375E;}
	.st3{fill-rule:evenodd;clip-rule:evenodd;fill:#113860;}
	.st4{fill-rule:evenodd;clip-rule:evenodd;fill:#12365A;}
	.st5{fill-rule:evenodd;clip-rule:evenodd;fill:#12365B;}
	.st6{fill-rule:evenodd;clip-rule:evenodd;fill:#12375B;}
	.st7{fill-rule:evenodd;clip-rule:evenodd;fill:#12375D;}
	.st8{fill-rule:evenodd;clip-rule:evenodd;fill:#12385C;}
	.st9{fill-rule:evenodd;clip-rule:evenodd;fill:#12385F;}
	.st10{fill-rule:evenodd;clip-rule:evenodd;fill:#13395E;}
	.st11{fill-rule:evenodd;clip-rule:evenodd;fill:#133A5E;}
	.st12{fill-rule:evenodd;clip-rule:evenodd;fill:#133A5F;}
	.st13{fill-rule:evenodd;clip-rule:evenodd;fill:#133B5C;}
	.st14{fill-rule:evenodd;clip-rule:evenodd;fill:#133B5F;}
	.st15{fill-rule:evenodd;clip-rule:evenodd;fill:#133B60;}
	.st16{fill-rule:evenodd;clip-rule:evenodd;fill:#133C64;}
	.st17{fill-rule:evenodd;clip-rule:evenodd;fill:#143C61;}
	.st18{fill-rule:evenodd;clip-rule:evenodd;fill:#143C62;}
	.st19{fill-rule:evenodd;clip-rule:evenodd;fill:#143D5F;}
	.st20{fill-rule:evenodd;clip-rule:evenodd;fill:#144163;}
	.st21{fill-rule:evenodd;clip-rule:evenodd;fill:#153C60;}
	.st22{fill-rule:evenodd;clip-rule:evenodd;fill:#153E61;}
	.st23{fill-rule:evenodd;clip-rule:evenodd;fill:#153F67;}
	.st24{fill-rule:evenodd;clip-rule:evenodd;fill:#154163;}
	.st25{fill-rule:evenodd;clip-rule:evenodd;fill:#154167;}
	.st26{fill-rule:evenodd;clip-rule:evenodd;fill:#184063;}
	.st27{fill-rule:evenodd;clip-rule:evenodd;fill:#184266;}
]]>
</style>
<path class="st20" d="M25.558,98.613c2.205-2.4,4.111-4.967,6.497-6.961c3.692-3.088,4.337-6.313,1.474-10.171
	c-3.581-4.824-2.231-8.42,2.704-11.159c5.193-2.882,6.198-6.831,3.923-12.333c-1.573-3.803-2.312-7.99-3.088-12.07
	c-0.53-2.784-1.707-4.18-4.634-3.826c-2.44,0.294-4.221-0.618-5.002-3.057c-1.076-3.357-3.167-4.348-6.442-2.942
	c-4.154,1.782-7.54,0.638-10.781-2.416C7.198,30.839,3.738,28.476,0,25.527c8.251-5.623,16.176-11.028,24.106-16.426
	c2.616-1.78,5.539-3.229,7.813-5.37c4.935-4.646,9.621-4.813,15.422-1.28c5.944,3.62,12.57,6.1,18.742,9.377
	c2.826,1.501,5.25,1.726,7.875-0.093c0.678-0.47,1.471-0.772,2.219-1.14c2.688-1.322,5.535-3.929,8.027-3.624
	c2.941,0.359,2.771,4.751,4.082,7.315c0.934,1.826,2.494,2.596,4.076,3.466c7.439,4.095,14.83,8.279,22.371,12.18
	c2.443,1.264,2.914,2.776,3.141,5.408c1.1,12.726-4.881,22.682-11.885,32.349c-3.645,5.029-7.047,10.167-5.701,16.909
	c0.244,1.225-0.418,3.206,1.365,3.259c3.322,0.098,2.744,2.403,3.34,4.425c1.52,5.145-0.332,8.282-4.834,10.869
	c-4.021,2.309-7.621,5.361-11.352,8.161c-5.926,4.446-7.045,8.733-4.725,15.819c1.34,4.093-3.195,3.123-4.551,5.278
	c-3.727-7.171-6.389-14.009-2.91-21.683c1.18-2.606,0.256-4.21-2.605-4.379c-7.594-0.448-12.607-4.224-15.105-11.395
	c-1.101-3.162-2.977-3.269-5.779-1.847c-4.746,2.408-9.871,4.114-14.475,6.746C33.918,102.563,29.939,101.803,25.558,98.613z"/>
</svg>
