<?xml version="1.0" encoding="iso-8859-1"?>
<!-- Generator: Adobe Illustrator 16.0.3, SVG Export Plug-In . SVG Version: 6.00 Build 0)  -->
<!DOCTYPE svg PUBLIC "-//W3C//DTD SVG 1.1//EN" "http://www.w3.org/Graphics/SVG/1.1/DTD/svg11.dtd">
<svg version="1.1" id="Capa_1" xmlns="http://www.w3.org/2000/svg" xmlns:xlink="http://www.w3.org/1999/xlink" x="0px" y="0px"
	 width="208.181px" height="89.04px" viewBox="0 0 208.181 89.04" style="enable-background:new 0 0 208.181 89.04;"
	 xml:space="preserve">
<style type="text/css">
<![CDATA[
	.st0{fill-rule:evenodd;clip-rule:evenodd;fill:#708998;}
	.st1{fill-rule:evenodd;clip-rule:evenodd;fill:#11365B;}
	.st2{fill-rule:evenodd;clip-rule:evenodd;fill:#11375E;}
	.st3{fill-rule:evenodd;clip-rule:evenodd;fill:#113860;}
	.st4{fill-rule:evenodd;clip-rule:evenodd;fill:#12365A;}
	.st5{fill-rule:evenodd;clip-rule:evenodd;fill:#12365B;}
	.st6{fill-rule:evenodd;clip-rule:evenodd;fill:#12375B;}
	.st7{fill-rule:evenodd;clip-rule:evenodd;fill:#12375D;}
	.st8{fill-rule:evenodd;clip-rule:evenodd;fill:#12385C;}
	.st9{fill-rule:evenodd;clip-rule:evenodd;fill:#12385F;}
	.st10{fill-rule:evenodd;clip-rule:evenodd;fill:#13395E;}
	.st11{fill-rule:evenodd;clip-rule:evenodd;fill:#133A5E;}
	.st12{fill-rule:evenodd;clip-rule:evenodd;fill:#133A5F;}
	.st13{fill-rule:evenodd;clip-rule:evenodd;fill:#133B5C;}
	.st14{fill-rule:evenodd;clip-rule:evenodd;fill:#133B5F;}
	.st15{fill-rule:evenodd;clip-rule:evenodd;fill:#133B60;}
	.st16{fill-rule:evenodd;clip-rule:evenodd;fill:#133C64;}
	.st17{fill-rule:evenodd;clip-rule:evenodd;fill:#143C61;}
	.st18{fill-rule:evenodd;clip-rule:evenodd;fill:#143C62;}
	.st19{fill-rule:evenodd;clip-rule:evenodd;fill:#143D5F;}
	.st20{fill-rule:evenodd;clip-rule:evenodd;fill:#144163;}
	.st21{fill-rule:evenodd;clip-rule:evenodd;fill:#153C60;}
	.st22{fill-rule:evenodd;clip-rule:evenodd;fill:#153E61;}
	.st23{fill-rule:evenodd;clip-rule:evenodd;fill:#153F67;}
	.st24{fill-rule:evenodd;clip-rule:evenodd;fill:#154163;}
	.st25{fill-rule:evenodd;clip-rule:evenodd;fill:#154167;}
	.st26{fill-rule:evenodd;clip-rule:evenodd;fill:#184063;}
	.st27{fill-rule:evenodd;clip-rule:evenodd;fill:#184266;}
]]>
</style>
<g>
	<path class="st20" d="M22.921,28.605c1.722,0.567,2.345,2.781,4.831,3.03c0-7.03-0.077-13.951,0.024-20.87
		C27.859,5.02,33.254,0.119,38.899,0.032c2.946-0.045,4.454,0.645,3.961,3.852c-0.475,3.096,0.826,3.963,3.54,2.526
		c3.105-1.645,4.408,0.104,5.646,2.595c1.699,3.418,3.469,6.73,7.676,7.926c4.675,1.328,8.633-1.003,9.398-5.479
		c0.84-4.92,5.138-7.506,8.322-10.731c1.067-1.08,5.562,3.175,5.805,5.577c0.134,1.317,0.116,2.665,0.02,3.988
		c-0.129,1.76,0.82,2.316,2.348,2.48c1.534,0.166,2.961,0.455,3.488-1.671c0.598-2.415,1.593-4.736,2.132-7.161
		C91.873,1.061,93.24-0.028,96.369,0c9.481,0.086,9.625-0.07,9.417,9.812c-0.091,4.294,0.005,7.685,5.822,6.579
		c1.024-0.195,2.252,0.45,3.336,0.846c9.397,3.437,18.849,6.51,29.102,5.291c0.747-0.088,1.563,0.405,2.347,0.628
		c-4.636,1.562-9.378,0.172-14.05,0.788c4.881-0.573,9.809,0.69,14.672-0.644c2.296-0.181,1.72-1.926,1.871-3.335
		c0.157-1.46-0.806-3.955,1.947-3.582c2.968,0.402,7.776-2.271,8.575,2.13c1.279,7.055,4.852,6.195,10.15,5.399
		c7.25-1.089,14.558,0.904,21.81,1.739c2.826,0.325,2.271,3.709,2.796,5.794c0.973,3.856,1.494,7.368,7.149,6.543
		c3.121-0.455,8.401,10.05,6.444,12.449c-1.559,1.911-4.327,1.216-6.546,1.62c-4.597,0.837-11.37,8.431-10.102,12.803
		c2.139,7.372-1.028,12.464-4.912,18.172c-3.548,5.216-6.781,6.794-13.336,5.659C116.586,78.946,60.227,69.687,3.873,60.4
		c-2.931-0.483-3.913-1.473-3.819-4.42c0.202-6.327,0.299-12.677-0.028-18.994c-0.215-4.178,0.86-7.096,4.993-8.471
		c1.705,0.15,3.414-0.397,5.117,0.024c3.303,0.806,6.632,0.62,9.964,0.236C21.024,28.448,21.987,28.775,22.921,28.605z"/>
	<path class="st12" d="M22.921,28.605c-0.649,0.248-1.298,0.495-1.947,0.743c-3.666,0.765-7.331,0.764-10.997,0.001
		c-1.662-0.224-3.499,0.591-4.959-0.834C10.995,26.875,16.962,26.746,22.921,28.605z"/>
	<path class="st15" d="M147.014,23.3c-5.247,2.458-10.652,0.178-15.946,1.234c-0.011-0.459-0.022-0.918-0.033-1.378
		c5.119,0,10.238,0,15.357,0C146.65,22.98,146.858,23.028,147.014,23.3z"/>
	<path class="st16" d="M104.567,5.662c0,3.355,0,6.71,0,10.065c-0.215-0.016-0.43-0.031-0.645-0.047c0-3.409,0-6.817,0-10.226
		C104.137,5.523,104.352,5.592,104.567,5.662z"/>
	<path class="st23" d="M9.978,29.349c3.666,0,7.331,0,10.997-0.001C17.309,30.965,13.643,30.964,9.978,29.349z"/>
	<path class="st16" d="M103.609,3.021c-0.226-0.209-0.693-0.447-0.826-0.808c-0.218-0.59,0.297-0.841,0.767-0.726
		c0.378,0.093,0.871,0.396,0.987,0.722C104.712,2.705,104.35,3.051,103.609,3.021z"/>
</g>
</svg>
