<?xml version="1.0" encoding="iso-8859-1"?>
<!-- Generator: Adobe Illustrator 16.0.3, SVG Export Plug-In . SVG Version: 6.00 Build 0)  -->
<!DOCTYPE svg PUBLIC "-//W3C//DTD SVG 1.1//EN" "http://www.w3.org/Graphics/SVG/1.1/DTD/svg11.dtd">
<svg version="1.1" id="Capa_1" xmlns="http://www.w3.org/2000/svg" xmlns:xlink="http://www.w3.org/1999/xlink" x="0px" y="0px"
	 width="107.859px" height="70.479px" viewBox="0 0 107.859 70.479" style="enable-background:new 0 0 107.859 70.479;"
	 xml:space="preserve">
<style type="text/css">
<![CDATA[
	.st0{fill-rule:evenodd;clip-rule:evenodd;fill:#708998;}
	.st1{fill-rule:evenodd;clip-rule:evenodd;fill:#11365B;}
	.st2{fill-rule:evenodd;clip-rule:evenodd;fill:#11375E;}
	.st3{fill-rule:evenodd;clip-rule:evenodd;fill:#113860;}
	.st4{fill-rule:evenodd;clip-rule:evenodd;fill:#12365A;}
	.st5{fill-rule:evenodd;clip-rule:evenodd;fill:#12365B;}
	.st6{fill-rule:evenodd;clip-rule:evenodd;fill:#12375B;}
	.st7{fill-rule:evenodd;clip-rule:evenodd;fill:#12375D;}
	.st8{fill-rule:evenodd;clip-rule:evenodd;fill:#12385C;}
	.st9{fill-rule:evenodd;clip-rule:evenodd;fill:#12385F;}
	.st10{fill-rule:evenodd;clip-rule:evenodd;fill:#13395E;}
	.st11{fill-rule:evenodd;clip-rule:evenodd;fill:#133A5E;}
	.st12{fill-rule:evenodd;clip-rule:evenodd;fill:#133A5F;}
	.st13{fill-rule:evenodd;clip-rule:evenodd;fill:#133B5C;}
	.st14{fill-rule:evenodd;clip-rule:evenodd;fill:#133B5F;}
	.st15{fill-rule:evenodd;clip-rule:evenodd;fill:#133B60;}
	.st16{fill-rule:evenodd;clip-rule:evenodd;fill:#133C64;}
	.st17{fill-rule:evenodd;clip-rule:evenodd;fill:#143C61;}
	.st18{fill-rule:evenodd;clip-rule:evenodd;fill:#143C62;}
	.st19{fill-rule:evenodd;clip-rule:evenodd;fill:#143D5F;}
	.st20{fill-rule:evenodd;clip-rule:evenodd;fill:#144163;}
	.st21{fill-rule:evenodd;clip-rule:evenodd;fill:#153C60;}
	.st22{fill-rule:evenodd;clip-rule:evenodd;fill:#153E61;}
	.st23{fill-rule:evenodd;clip-rule:evenodd;fill:#153F67;}
	.st24{fill-rule:evenodd;clip-rule:evenodd;fill:#154163;}
	.st25{fill-rule:evenodd;clip-rule:evenodd;fill:#154167;}
	.st26{fill-rule:evenodd;clip-rule:evenodd;fill:#184063;}
	.st27{fill-rule:evenodd;clip-rule:evenodd;fill:#184266;}
]]>
</style>
<g>
	<path class="st20" d="M3.777,14.982c2.437-4.102,4.873-8.205,7.826-13.176c3.17,5.236,6.063,9.637,8.547,14.256
		c1.457,2.713,2.782,2.889,5.423,1.525c5.463-2.822,11.191-5.123,16.718-7.828c2.608-1.277,5.076-1.551,7.602-0.143
		c3.606,2.01,6.872,1.514,10.172-0.826C70.217,1.588,81.214-1.783,93.794,0.938c4.345,0.939,8.937,0.73,14.065,1.092
		c-3.462,2.938-7.354,3.436-10.87,4.645c-2.173,0.748-3.688,1.563-3.208,4.094c0.56,2.955-1.29,4.021-3.521,5.162
		C67.006,27.82,43.84,39.887,20.509,51.625c-3.714,1.869-4.862,4.012-4.77,7.996c0.251,10.738,0.063,10.455-10.388,10.844
		c-4.897,0.184-5.623-1.467-5.278-5.871c1.182-15.1,1.943-30.234,2.894-45.354c0.091-1.451-0.355-3.033,0.821-4.285
		c0.945,1.338,0.365,2.855,0.419,3.389C4.055,17.83,4.858,16.293,3.777,14.982z"/>
	<path class="st3" d="M3.777,14.982c1.6,1.469,1.126,3.203,0.264,4.98c-0.084-1.67-0.169-3.338-0.253-5.008L3.777,14.982z"/>
</g>
</svg>
