<?xml version="1.0" encoding="iso-8859-1"?>
<!-- Generator: Adobe Illustrator 16.0.3, SVG Export Plug-In . SVG Version: 6.00 Build 0)  -->
<!DOCTYPE svg PUBLIC "-//W3C//DTD SVG 1.1//EN" "http://www.w3.org/Graphics/SVG/1.1/DTD/svg11.dtd">
<svg version="1.1" id="Capa_1" xmlns="http://www.w3.org/2000/svg" xmlns:xlink="http://www.w3.org/1999/xlink" x="0px" y="0px"
	 width="124.869px" height="84.893px" viewBox="0 0 124.869 84.893" style="enable-background:new 0 0 124.869 84.893;"
	 xml:space="preserve">
<style type="text/css">
<![CDATA[
	.st0{fill-rule:evenodd;clip-rule:evenodd;fill:#708998;}
	.st1{fill-rule:evenodd;clip-rule:evenodd;fill:#11365B;}
	.st2{fill-rule:evenodd;clip-rule:evenodd;fill:#11375E;}
	.st3{fill-rule:evenodd;clip-rule:evenodd;fill:#113860;}
	.st4{fill-rule:evenodd;clip-rule:evenodd;fill:#12365A;}
	.st5{fill-rule:evenodd;clip-rule:evenodd;fill:#12365B;}
	.st6{fill-rule:evenodd;clip-rule:evenodd;fill:#12375B;}
	.st7{fill-rule:evenodd;clip-rule:evenodd;fill:#12375D;}
	.st8{fill-rule:evenodd;clip-rule:evenodd;fill:#12385C;}
	.st9{fill-rule:evenodd;clip-rule:evenodd;fill:#12385F;}
	.st10{fill-rule:evenodd;clip-rule:evenodd;fill:#13395E;}
	.st11{fill-rule:evenodd;clip-rule:evenodd;fill:#133A5E;}
	.st12{fill-rule:evenodd;clip-rule:evenodd;fill:#133A5F;}
	.st13{fill-rule:evenodd;clip-rule:evenodd;fill:#133B5C;}
	.st14{fill-rule:evenodd;clip-rule:evenodd;fill:#133B5F;}
	.st15{fill-rule:evenodd;clip-rule:evenodd;fill:#133B60;}
	.st16{fill-rule:evenodd;clip-rule:evenodd;fill:#133C64;}
	.st17{fill-rule:evenodd;clip-rule:evenodd;fill:#143C61;}
	.st18{fill-rule:evenodd;clip-rule:evenodd;fill:#143C62;}
	.st19{fill-rule:evenodd;clip-rule:evenodd;fill:#143D5F;}
	.st20{fill-rule:evenodd;clip-rule:evenodd;fill:#144163;}
	.st21{fill-rule:evenodd;clip-rule:evenodd;fill:#153C60;}
	.st22{fill-rule:evenodd;clip-rule:evenodd;fill:#153E61;}
	.st23{fill-rule:evenodd;clip-rule:evenodd;fill:#153F67;}
	.st24{fill-rule:evenodd;clip-rule:evenodd;fill:#154163;}
	.st25{fill-rule:evenodd;clip-rule:evenodd;fill:#154167;}
	.st26{fill-rule:evenodd;clip-rule:evenodd;fill:#184063;}
	.st27{fill-rule:evenodd;clip-rule:evenodd;fill:#184266;}
]]>
</style>
<g>
	<path class="st20" d="M43.303,76.623c-5.706-5.65-12.613-9.748-18.95-14.58c-7.913-6.032-15.996-11.84-24.353-18
		c7.028-5.813,13.552-11.495,20.403-16.747c3.135-2.402,4.62-5.043,3.951-8.85c-0.815-4.634,0.771-7.939,4.921-10.285
		c2.298-1.299,4.266-3.181,6.384-4.799c5.55-4.241,12.658-4.494,18.333-0.625c3.284,2.239,6.544,4.514,10.854,7.491
		c-4.534,0.673-7.997,1.186-12.061,1.789c5.722,3.283,2.957,8.46,3.316,12.805c0.302,3.639,0.956,5.568,5.136,5.092
		c3.29-0.374,6.656-0.123,9.988-0.063c3.324,0.061,6.838,0.718,7.256-4.296c0.149-1.795,1.729-1.583,3.136-1.401
		c8.75,1.132,17.501,2.273,26.268,3.27c1.823,0.207,3.067,1.016,4.252,2.25c3.344,3.486,6.475,7.237,10.167,10.308
		c3.604,2.998,2.816,5.392,1.229,9.265c-3.26,7.954-7.773,11.994-16.75,9.498c-2.991-0.833-6.323-0.35-9.43-0.881
		c-3.504-0.6-4.607,0.801-5.012,4.099c-0.806,6.566-6.139,10.267-12.51,9.145c-5.08-0.896-10.267-1.358-15.24-2.651
		c-4.246-1.103-7.066,0.072-10.187,2.949c-3.045,2.809-5.131,5.428-4.299,9.782c0.202,1.06,1.015,2.682-0.793,3.46
		C42.856,85.309,44.09,80.209,43.303,76.623z"/>
	<path class="st5" d="M43.303,76.623c0.288,0.387,0.873,0.824,0.817,1.151c-0.72,4.178,1.569,6.015,5.192,6.873
		C42.734,85.289,42.734,85.289,43.303,76.623z"/>
</g>
</svg>
